<svg xmlns="http://www.w3.org/2000/svg" viewBox="0 0 1920 1080">
  <g transform="
          rotate(359 960 540) 
          translate(-29.63922766976782 -16.67206556424435)
          scale(1.0308741954893414)
        ">
    <rect width="1920" height="1080" fill="rgb(244, 242, 252)"></rect>
    <g transform="translate(0, 0)">
      <path fill="rgb(211, 213, 243)" fill-opacity="1"
        d="M0,176.472L80,175.038C160,173.603,320,170.735,480,170.291C640,169.846,800,171.825,960,172.047C1120,172.27,1280,170.736,1440,151.592C1600,132.447,1760,95.692,1840,77.314L1920,58.936L1920,1080L1840,1080C1760,1080,1600,1080,1440,1080C1280,1080,1120,1080,960,1080C800,1080,640,1080,480,1080C320,1080,160,1080,80,1080L0,1080Z">
      </path>
    </g>
    <g transform="translate(0, 180)">
      <path fill="rgb(178, 184, 234)" fill-opacity="1"
        d="M0,150.577L80,125.941C160,101.306,320,52.034,480,49.24C640,46.446,800,90.129,960,101.009C1120,111.89,1280,89.968,1440,69.678C1600,49.387,1760,30.728,1840,21.398L1920,12.068L1920,900L1840,900C1760,900,1600,900,1440,900C1280,900,1120,900,960,900C800,900,640,900,480,900C320,900,160,900,80,900L0,900Z">
      </path>
    </g>
    <g transform="translate(0, 360)">
      <path fill="rgb(145, 156, 225)" fill-opacity="1"
        d="M0,125.838L80,113.714C160,101.59,320,77.343,480,65.207C640,53.071,800,53.045,960,70.637C1120,88.229,1280,123.439,1440,142.349C1600,161.259,1760,163.869,1840,165.175L1920,166.48L1920,720L1840,720C1760,720,1600,720,1440,720C1280,720,1120,720,960,720C800,720,640,720,480,720C320,720,160,720,80,720L0,720Z">
      </path>
    </g>
    <g transform="translate(0, 540)">
      <path fill="rgb(111, 127, 216)" fill-opacity="1"
        d="M0,29.457L80,33.474C160,37.492,320,45.526,480,63.136C640,80.747,800,107.933,960,127.165C1120,146.397,1280,157.675,1440,150.257C1600,142.839,1760,116.726,1840,103.669L1920,90.613L1920,540L1840,540C1760,540,1600,540,1440,540C1280,540,1120,540,960,540C800,540,640,540,480,540C320,540,160,540,80,540L0,540Z">
      </path>
    </g>
    <g transform="translate(0, 720)">
      <path fill="rgb(78, 98, 207)" fill-opacity="1"
        d="M0,9.536L80,8.17C160,6.803,320,4.071,480,20.539C640,37.008,800,72.679,960,83.891C1120,95.103,1280,81.857,1440,68.089C1600,54.321,1760,40.031,1840,32.886L1920,25.742L1920,360L1840,360C1760,360,1600,360,1440,360C1280,360,1120,360,960,360C800,360,640,360,480,360C320,360,160,360,80,360L0,360Z">
      </path>
    </g>
    <g transform="translate(0, 900)">
      <path fill="rgb(45, 69, 198)" fill-opacity="1"
        d="M0,45.188L80,46.545C160,47.902,320,50.616,480,66.528C640,82.44,800,111.551,960,131.375C1120,151.199,1280,161.738,1440,168.059C1600,174.38,1760,176.484,1840,177.536L1920,178.588L1920,180L1840,180C1760,180,1600,180,1440,180C1280,180,1120,180,960,180C800,180,640,180,480,180C320,180,160,180,80,180L0,180Z">
      </path>
    </g>
  </g>
</svg>