<svg xmlns="http://www.w3.org/2000/svg" version="1.1" xmlns:xlink="http://www.w3.org/1999/xlink" xmlns:svgjs="http://svgjs.dev/svgjs" width="1440" height="560" preserveAspectRatio="none" viewBox="0 0 1440 560"><g mask="url(&quot;#SvgjsMask1004&quot;)" fill="none"><path d="M812.28 615.25C928.48 567.53 881.9 209.24 1107.22 208.45 1332.55 207.66 1538.41 439.37 1697.11 443.65" stroke="rgba(51,121,194,0.58)" stroke-width="2"></path><path d="M367.55 627.49C532.79 625.6 670.35 446.25 1001.97 441.98 1333.59 437.71 1469.99 242.78 1636.39 240.38" stroke="rgba(51,121,194,0.58)" stroke-width="2"></path><path d="M179.32 603.92C369.64 584.61 491.66 177.3 813.97 176.42 1136.28 175.54 1282.16 375.62 1448.62 378.02" stroke="rgba(51,121,194,0.58)" stroke-width="2"></path><path d="M786.93 602.29C907.69 556.48 860.85 192.11 1099.96 191.28 1339.07 190.45 1559.35 417.3 1726.02 420.88" stroke="rgba(51,121,194,0.58)" stroke-width="2"></path><path d="M184.17 561.83C376.87 556.75 540.16 278.71 901.26 278.41 1262.36 278.11 1436.9 390.07 1618.35 390.41" stroke="rgba(51,121,194,0.58)" stroke-width="2"></path></g><defs><mask id="SvgjsMask1004"><rect width="1440" height="560" fill="#ffffff"></rect></mask></defs></svg>