<svg width="132" height="39" viewBox="0 0 132 39" fill="none" xmlns="http://www.w3.org/2000/svg">
<g clip-path="url(#clip0_844_1653)">
<path d="M11.4064 25.7145C8.86228 21.2414 7.42248 16.1718 7.21207 10.9695C7.18992 10.422 7.49312 9.916 7.9778 9.66035L21.8203 2.35887C22.2459 2.13428 22.7552 2.13428 23.1809 2.35887L37.0234 9.66035C37.508 9.916 37.8112 10.422 37.789 10.9695C37.5787 16.1718 36.1389 21.2414 33.5948 25.7145C31.049 30.1906 27.4836 33.9184 23.2277 36.5626C22.7822 36.8394 22.219 36.8394 21.7734 36.5626C17.5176 33.9184 13.9521 30.1906 11.4064 25.7145Z" fill="#2D45C6"/>
<path d="M17.0312 20.5937L21.4062 23.875L30.1562 15.125" stroke="white" stroke-width="2" stroke-linecap="round" stroke-linejoin="round"/>
<path d="M52.3239 16.7102C52.2784 16.2519 52.0833 15.8958 51.7386 15.642C51.3939 15.3883 50.9261 15.2614 50.3352 15.2614C49.9337 15.2614 49.5947 15.3182 49.3182 15.4318C49.0417 15.5417 48.8295 15.6951 48.6818 15.892C48.5379 16.089 48.4659 16.3125 48.4659 16.5625C48.4583 16.7708 48.5019 16.9527 48.5966 17.108C48.6951 17.2633 48.8295 17.3977 49 17.5114C49.1705 17.6212 49.3674 17.7178 49.5909 17.8011C49.8144 17.8807 50.053 17.9489 50.3068 18.0057L51.3523 18.2557C51.8598 18.3693 52.3258 18.5208 52.75 18.7102C53.1742 18.8996 53.5417 19.1326 53.8523 19.4091C54.1629 19.6856 54.4034 20.0114 54.5739 20.3864C54.7481 20.7614 54.8371 21.1913 54.8409 21.6761C54.8371 22.3883 54.6553 23.0057 54.2955 23.5284C53.9394 24.0473 53.4242 24.4508 52.75 24.7386C52.0795 25.0227 51.2708 25.1648 50.3239 25.1648C49.3845 25.1648 48.5663 25.0208 47.8693 24.733C47.1761 24.4451 46.6345 24.0189 46.2443 23.4545C45.858 22.8864 45.6553 22.1837 45.6364 21.3466H48.017C48.0436 21.7367 48.1553 22.0625 48.3523 22.3239C48.553 22.5814 48.8201 22.7765 49.1534 22.9091C49.4905 23.0379 49.8712 23.1023 50.2955 23.1023C50.7121 23.1023 51.0739 23.0417 51.3807 22.9205C51.6913 22.7992 51.9318 22.6307 52.1023 22.4148C52.2727 22.1989 52.358 21.9508 52.358 21.6705C52.358 21.4091 52.2803 21.1894 52.125 21.0114C51.9735 20.8333 51.75 20.6818 51.4545 20.5568C51.1629 20.4318 50.8049 20.3182 50.3807 20.2159L49.1136 19.8977C48.1326 19.6591 47.358 19.286 46.7898 18.7784C46.2216 18.2708 45.9394 17.5871 45.9432 16.7273C45.9394 16.0227 46.1269 15.4072 46.5057 14.8807C46.8883 14.3542 47.4129 13.9432 48.0795 13.6477C48.7462 13.3523 49.5038 13.2045 50.3523 13.2045C51.2159 13.2045 51.9697 13.3523 52.6136 13.6477C53.2614 13.9432 53.7652 14.3542 54.125 14.8807C54.4848 15.4072 54.6705 16.017 54.6818 16.7102H52.3239ZM56.4503 25V16.2727H58.8707V25H56.4503ZM57.6662 15.1477C57.3063 15.1477 56.9976 15.0284 56.7401 14.7898C56.4863 14.5473 56.3594 14.2576 56.3594 13.9205C56.3594 13.5871 56.4863 13.3011 56.7401 13.0625C56.9976 12.8201 57.3063 12.6989 57.6662 12.6989C58.026 12.6989 58.3329 12.8201 58.5866 13.0625C58.8442 13.3011 58.973 13.5871 58.973 13.9205C58.973 14.2576 58.8442 14.5473 58.5866 14.7898C58.3329 15.0284 58.026 15.1477 57.6662 15.1477ZM64.7415 28.4545C63.9574 28.4545 63.285 28.3466 62.7244 28.1307C62.1676 27.9186 61.7244 27.6288 61.3949 27.2614C61.0653 26.8939 60.8513 26.4811 60.7528 26.0227L62.9915 25.7216C63.0597 25.8958 63.1676 26.0587 63.3153 26.2102C63.4631 26.3617 63.6581 26.483 63.9006 26.5739C64.1468 26.6686 64.446 26.7159 64.7983 26.7159C65.3248 26.7159 65.7585 26.5871 66.0994 26.3295C66.4441 26.0758 66.6165 25.6496 66.6165 25.0511V23.4545H66.5142C66.4081 23.697 66.2491 23.9261 66.0369 24.142C65.8248 24.358 65.5521 24.5341 65.2188 24.6705C64.8854 24.8068 64.4877 24.875 64.0256 24.875C63.3703 24.875 62.7737 24.7235 62.2358 24.4205C61.7017 24.1136 61.2756 23.6458 60.9574 23.017C60.643 22.3845 60.4858 21.5852 60.4858 20.6193C60.4858 19.6307 60.6468 18.8049 60.9688 18.142C61.2907 17.4792 61.7188 16.983 62.2528 16.6534C62.7907 16.3239 63.3797 16.1591 64.0199 16.1591C64.5085 16.1591 64.9176 16.2424 65.2472 16.4091C65.5767 16.572 65.8419 16.7765 66.0426 17.0227C66.2472 17.2652 66.4044 17.5038 66.5142 17.7386H66.6051V16.2727H69.0085V25.0852C69.0085 25.8277 68.8267 26.4489 68.4631 26.9489C68.0994 27.4489 67.5956 27.8239 66.9517 28.0739C66.3116 28.3277 65.5748 28.4545 64.7415 28.4545ZM64.7926 23.0568C65.1828 23.0568 65.5123 22.9602 65.7812 22.767C66.054 22.5701 66.2623 22.2898 66.4062 21.9261C66.554 21.5587 66.6278 21.1193 66.6278 20.608C66.6278 20.0966 66.5559 19.6534 66.4119 19.2784C66.268 18.8996 66.0597 18.6061 65.7869 18.3977C65.5142 18.1894 65.1828 18.0852 64.7926 18.0852C64.3949 18.0852 64.0597 18.1932 63.7869 18.4091C63.5142 18.6212 63.3078 18.9167 63.1676 19.2955C63.0275 19.6742 62.9574 20.1117 62.9574 20.608C62.9574 21.1117 63.0275 21.5473 63.1676 21.9148C63.3116 22.2784 63.518 22.5606 63.7869 22.7614C64.0597 22.9583 64.3949 23.0568 64.7926 23.0568ZM73.3551 19.9545V25H70.9347V16.2727H73.2415V17.8125H73.3438C73.5369 17.3049 73.8608 16.9034 74.3153 16.608C74.7699 16.3087 75.321 16.1591 75.9688 16.1591C76.5748 16.1591 77.1032 16.2917 77.554 16.5568C78.0047 16.822 78.3551 17.2008 78.6051 17.6932C78.8551 18.1818 78.9801 18.7652 78.9801 19.4432V25H76.5597V19.875C76.5634 19.3409 76.4271 18.9242 76.1506 18.625C75.8741 18.322 75.4934 18.1705 75.0085 18.1705C74.6828 18.1705 74.3949 18.2405 74.1449 18.3807C73.8987 18.5208 73.7055 18.7254 73.5653 18.9943C73.429 19.2595 73.3589 19.5795 73.3551 19.9545ZM82.223 13.3636L85.0355 22.2045H85.1435L87.9616 13.3636H90.6889L86.6776 25H83.5071L79.4901 13.3636H82.223ZM95.0369 25.1705C94.1392 25.1705 93.3665 24.9886 92.7188 24.625C92.0748 24.2576 91.5786 23.7386 91.2301 23.0682C90.8816 22.3939 90.7074 21.5966 90.7074 20.6761C90.7074 19.7784 90.8816 18.9905 91.2301 18.3125C91.5786 17.6345 92.0691 17.1061 92.7017 16.7273C93.3381 16.3485 94.0843 16.1591 94.9403 16.1591C95.5161 16.1591 96.0521 16.2519 96.5483 16.4375C97.0483 16.6193 97.4839 16.8939 97.8551 17.2614C98.2301 17.6288 98.5218 18.0909 98.7301 18.6477C98.9384 19.2008 99.0426 19.8485 99.0426 20.5909V21.2557H91.6733V19.7557H96.7642C96.7642 19.4072 96.6884 19.0985 96.5369 18.8295C96.3854 18.5606 96.1752 18.3504 95.9062 18.1989C95.6411 18.0436 95.3324 17.9659 94.9801 17.9659C94.6127 17.9659 94.2869 18.0511 94.0028 18.2216C93.7225 18.3883 93.5028 18.6136 93.3438 18.8977C93.1847 19.178 93.1032 19.4905 93.0994 19.8352V21.2614C93.0994 21.6932 93.179 22.0663 93.3381 22.3807C93.5009 22.6951 93.7301 22.9375 94.0256 23.108C94.321 23.2784 94.6714 23.3636 95.0767 23.3636C95.3456 23.3636 95.5919 23.3258 95.8153 23.25C96.0388 23.1742 96.2301 23.0606 96.3892 22.9091C96.5483 22.7576 96.6695 22.572 96.7528 22.3523L98.9915 22.5C98.8778 23.0379 98.6449 23.5076 98.2926 23.9091C97.9441 24.3068 97.4934 24.6174 96.9403 24.8409C96.3911 25.0606 95.7566 25.1705 95.0369 25.1705ZM100.622 25V16.2727H102.969V17.7955H103.06C103.219 17.2538 103.486 16.8447 103.861 16.5682C104.236 16.2879 104.668 16.1477 105.156 16.1477C105.277 16.1477 105.408 16.1553 105.548 16.1705C105.688 16.1856 105.812 16.2064 105.918 16.233V18.3807C105.804 18.3466 105.647 18.3163 105.446 18.2898C105.245 18.2633 105.062 18.25 104.895 18.25C104.539 18.25 104.221 18.3277 103.94 18.483C103.664 18.6345 103.444 18.8466 103.281 19.1193C103.122 19.392 103.043 19.7064 103.043 20.0625V25H100.622ZM107.169 25V16.2727H109.589V25H107.169ZM108.385 15.1477C108.025 15.1477 107.716 15.0284 107.459 14.7898C107.205 14.5473 107.078 14.2576 107.078 13.9205C107.078 13.5871 107.205 13.3011 107.459 13.0625C107.716 12.8201 108.025 12.6989 108.385 12.6989C108.745 12.6989 109.052 12.8201 109.305 13.0625C109.563 13.3011 109.692 13.5871 109.692 13.9205C109.692 14.2576 109.563 14.5473 109.305 14.7898C109.052 15.0284 108.745 15.1477 108.385 15.1477ZM116.222 16.2727V18.0909H110.835V16.2727H116.222ZM112.068 25V15.642C112.068 15.0095 112.191 14.4848 112.438 14.0682C112.688 13.6515 113.028 13.339 113.46 13.1307C113.892 12.9223 114.383 12.8182 114.932 12.8182C115.303 12.8182 115.642 12.8466 115.949 12.9034C116.259 12.9602 116.491 13.0114 116.642 13.0568L116.21 14.875C116.116 14.8447 115.998 14.8163 115.858 14.7898C115.722 14.7633 115.581 14.75 115.438 14.75C115.081 14.75 114.833 14.8333 114.693 15C114.553 15.1629 114.483 15.392 114.483 15.6875V25H112.068ZM119.195 28.2727C118.888 28.2727 118.6 28.2481 118.331 28.1989C118.066 28.1534 117.846 28.0947 117.672 28.0227L118.217 26.2159C118.501 26.303 118.757 26.3504 118.984 26.358C119.215 26.3655 119.414 26.3125 119.581 26.1989C119.751 26.0852 119.89 25.892 119.996 25.6193L120.138 25.25L117.007 16.2727H119.553L121.359 22.6818H121.45L123.274 16.2727H125.837L122.445 25.9432C122.282 26.4129 122.06 26.822 121.78 27.1705C121.503 27.5227 121.153 27.7936 120.729 27.983C120.304 28.1761 119.793 28.2727 119.195 28.2727Z" fill="white"/>
<line x1="80" y1="32.5" x2="140" y2="32.5" stroke="#2D45C6"/>
</g>
<defs>
<clipPath id="clip0_844_1653">
<rect width="132" height="39" fill="white"/>
</clipPath>
</defs>
</svg>
